<?xml version="1.0" encoding="utf-8"?>
<!-- Generator: Adobe Illustrator 16.0.0, SVG Export Plug-In . SVG Version: 6.00 Build 0)  -->
<!DOCTYPE svg PUBLIC "-//W3C//DTD SVG 1.1//EN" "http://www.w3.org/Graphics/SVG/1.1/DTD/svg11.dtd">
<svg version="1.1" id="Layer_1" xmlns="http://www.w3.org/2000/svg" xmlns:xlink="http://www.w3.org/1999/xlink" x="0px" y="0px"
	 width="224px" height="64px" viewBox="0 0 224 64" enable-background="new 0 0 224 64" xml:space="preserve">
<path fill="#383838" d="M24,10.981c-0.6,0.3-1.2,0.4-1.9,0.5c0.7-0.4,1.2-1,1.4-1.8c-0.6,0.4-1.3,0.6-2.1,0.8c-0.6-0.6-1.5-1-2.4-1
	c-1.8,0-3.3,1.5-3.3,3.3c0,0.3,0,0.5,0.1,0.7c-2.7-0.1-5.1-1.4-6.8-3.4c-0.3,0.5-0.4,1-0.4,1.7c0,1.1,0.6,2.1,1.5,2.7
	c-0.5,0-1-0.2-1.5-0.4l0,0c0,1.6,1.1,2.9,2.6,3.2c-0.4,0.3-1,0.3-1.5,0c0.4,1.3,1.6,2.3,3.1,2.3c-1.1,0.9-2.5,1.4-4.1,1.4
	c-0.3,0-0.5,0-0.8,0c1.5,0.9,3.2,1.5,5,1.5c6,0,9.3-5,9.3-9.3c0-0.1,0-0.3,0-0.4C23,12.281,23.6,11.682,24,10.981z"/>
<path fill="#383838" d="M77.549,15.981v8h3v-8h2l1-3h-3c0,0,0-0.5,0-1.3c0-0.3,0.2-0.7,0.7-0.7c1,0,2.9,0,2.3,0v-3c0,0-1.6,0-3.3,0
	c-1.7,0-2.7,1.3-2.7,2.8s0,2.3,0,2.3h-2v3h2V15.981z"/>
<path fill="#383838" d="M169.913,19.981c-1.1,0-2,0.9-2,2s0.9,2,2,2s2-0.9,2-2C172.013,20.981,171.013,19.981,169.913,19.981z
	 M167.913,13.381v3.1c4.2,0,7.5,3.6,7.5,7.5h3.1C178.513,18.182,173.713,13.381,167.913,13.381z M167.913,7.981v3.1
	c7.1,0,12.9,5.8,12.9,12.9h3.1C183.913,15.182,176.713,7.981,167.913,7.981z"/>
<path fill="#383838" d="M51.575,17.082c-0.6,0-1.1,0.7-1.1,1.6c0,0.9,0.5,1.6,1.1,1.6c0.6,0,1.1-0.7,1.1-1.6
	C52.675,17.781,52.175,17.082,51.575,17.082z M55.475,13.082c0.1-0.3,0.1-2.1-0.6-3.8c0,0-1.6,0.2-4,1.8c-0.5-0.1-1.3-0.2-2.2-0.2
	s-1.7,0.1-2.2,0.2c-2.4-1.6-4-1.8-4-1.8c-0.7,1.7-0.7,3.5-0.6,3.8c-0.6,0.8-1.1,1.9-1.1,3.3c0,6.2,5.2,6.3,6.5,6.3
	c0.3,0,0.9,0,1.5,0s1.2,0,1.5,0c1.3,0,6.5-0.1,6.5-6.3C56.775,14.981,56.275,13.881,55.475,13.082z M48.775,21.981L48.775,21.981
	c-3.3,0-5.9-0.4-5.9-3.6c0-0.8,0.3-1.5,0.9-2.1c1.1-1,2.9-0.5,4.9-0.5l0,0l0,0c2.1,0,3.9-0.5,4.9,0.5c0.6,0.6,0.9,1.3,0.9,2.1
	C54.675,21.582,52.075,21.981,48.775,21.981z M45.975,17.082c-0.6,0-1.1,0.7-1.1,1.6c0,0.9,0.5,1.6,1.1,1.6c0.6,0,1.1-0.7,1.1-1.6
	C47.175,17.781,46.675,17.082,45.975,17.082z"/>
<path fill="#383838" d="M143.238,11.831c-0.199-1.699-1.399-3-2.5-3c-1.1,0-2,1.301-1.8,2.9c0.2,1.7,1.4,3,2.5,3.1
	C142.539,14.831,143.339,13.432,143.238,11.831z M141.339,18.031c-1.8,0-3.4,1.101-3.4,2.601s1.3,2.6,3,2.6c2.5,0,3.4-1.1,3.4-2.6
	c0-0.2,0-0.301-0.101-0.5c-0.199-0.801-0.899-1.2-1.8-1.9C142.139,18.132,141.738,18.031,141.339,18.031z M143.339,8.831
	c1,0.4,1.5,1.601,1.5,2.9c0,1-0.601,1.9-1.3,2.6c-0.7,0.601-0.9,0.9-0.9,1.4s0.8,1.2,1.2,1.5c1.2,1,1.6,1.8,1.6,3.2
	c0,1.8-1.6,3.6-4.5,3.6c-2.6,0-4.7-1.1-4.7-2.899c0-1.801,2-3.601,4.5-3.601h0.801c-0.301-0.399-0.601-0.8-0.601-1.399
	c0-0.301,0.101-0.601,0.2-1c-0.2,0-0.3,0-0.4,0c-2.1,0-3.5-1.601-3.5-3.601c0-1.899,1.9-3.6,4-3.6h4.601l-1,0.8h-1.5V8.831z
	 M151.139,12.031h-2v2h-1v-2h-2v-1h2v-2h1v2h2V12.031z"/>
<path fill="#383838" d="M206.9,18.612c-0.4,2.2-0.9,4.3-2.5,5.4c-0.5-3.3,0.699-5.8,1.199-8.5c-0.899-1.5,0.101-4.6,2-3.9
	c2.4,0.9-2.1,5.7,0.9,6.3c3.1,0.6,4.4-5.4,2.5-7.4c-2.8-2.8-8.1-0.1-7.5,4c0.2,1,1.2,1.3,0.4,2.7c-1.801-0.4-2.301-1.8-2.2-3.7
	c0.1-3.1,2.8-5.2,5.399-5.5c3.4-0.4,6.5,1.2,7,4.4c0.5,3.6-1.5,7.4-5.1,7.2C208.1,19.512,207.7,19.012,206.9,18.612z"/>
<path fill="#FFFFFF" d="M24,43.203c-0.6,0.3-1.2,0.4-1.9,0.5c0.7-0.4,1.2-1,1.4-1.8c-0.6,0.399-1.3,0.6-2.1,0.8
	c-0.6-0.6-1.5-1-2.4-1c-1.8,0-3.3,1.5-3.3,3.3c0,0.3,0,0.5,0.1,0.7c-2.7-0.1-5.1-1.4-6.8-3.4c-0.3,0.5-0.4,1-0.4,1.7
	c0,1.101,0.6,2.101,1.5,2.7c-0.5,0-1-0.2-1.5-0.4l0,0c0,1.601,1.1,2.9,2.6,3.2c-0.4,0.3-1,0.3-1.5,0c0.4,1.3,1.6,2.3,3.1,2.3
	c-1.1,0.9-2.5,1.4-4.1,1.4c-0.3,0-0.5,0-0.8,0c1.5,0.9,3.2,1.5,5,1.5c6,0,9.3-5,9.3-9.3c0-0.101,0-0.3,0-0.4
	C23,44.503,23.6,43.903,24,43.203z"/>
<path fill="#FFFFFF" d="M78,48.203v8h3v-8h2l1-3h-3c0,0,0-0.5,0-1.3c0-0.3,0.2-0.7,0.7-0.7c1,0,2.9,0,2.3,0v-3c0,0-1.6,0-3.3,0
	c-1.7,0-2.7,1.3-2.7,2.8s0,2.3,0,2.3h-2v3L78,48.203L78,48.203z"/>
<path fill="#FFFFFF" d="M170,52.203c-1.1,0-2,0.9-2,2s0.9,2,2,2s2-0.9,2-2C172.1,53.203,171.1,52.203,170,52.203z M168,45.604v3.1
	c4.2,0,7.5,3.6,7.5,7.5h3.1C178.6,50.403,173.8,45.604,168,45.604z M168,40.203v3.1c7.1,0,12.9,5.801,12.9,12.9h3.1
	C184,47.403,176.8,40.203,168,40.203z"/>
<path fill="#FFFFFF" d="M50.8,49.303c-0.6,0-1.1,0.7-1.1,1.601c0,0.899,0.5,1.6,1.1,1.6c0.6,0,1.1-0.7,1.1-1.6
	C51.9,50.003,51.4,49.303,50.8,49.303z M54.7,45.303c0.1-0.3,0.1-2.1-0.6-3.8c0,0-1.6,0.2-4,1.8c-0.5-0.1-1.3-0.199-2.2-0.199
	s-1.7,0.1-2.2,0.199c-2.4-1.6-4-1.8-4-1.8c-0.7,1.7-0.7,3.5-0.6,3.8c-0.6,0.801-1.1,1.9-1.1,3.301c0,6.199,5.2,6.3,6.5,6.3
	c0.3,0,0.9,0,1.5,0s1.2,0,1.5,0c1.3,0,6.5-0.101,6.5-6.3C56,47.203,55.5,46.104,54.7,45.303z M48,54.203L48,54.203
	c-3.3,0-5.9-0.4-5.9-3.6c0-0.801,0.3-1.5,0.9-2.101c1.1-1,2.9-0.5,4.9-0.5l0,0l0,0c2.1,0,3.9-0.5,4.9,0.5
	c0.6,0.601,0.9,1.3,0.9,2.101C53.9,53.803,51.3,54.203,48,54.203z M45.2,49.303c-0.6,0-1.1,0.7-1.1,1.601c0,0.899,0.5,1.6,1.1,1.6
	c0.6,0,1.1-0.7,1.1-1.6C46.4,50.003,45.9,49.303,45.2,49.303z"/>
<path fill="#FFFFFF" d="M144.1,44.053c-0.199-1.7-1.399-3-2.5-3c-1.1,0-2,1.3-1.8,2.9c0.2,1.7,1.4,3,2.5,3.1
	C143.4,47.053,144.2,45.653,144.1,44.053z M142.2,50.253c-1.8,0-3.4,1.1-3.4,2.6c0,1.4,1.3,2.601,3,2.601c2.5,0,3.4-1.101,3.4-2.601
	c0-0.199,0-0.3-0.101-0.5c-0.199-0.8-0.899-1.199-1.8-1.899C143,50.353,142.6,50.253,142.2,50.253z M144.2,41.053
	c1,0.4,1.5,1.601,1.5,2.9c0,1-0.601,1.899-1.3,2.6c-0.7,0.601-0.9,0.9-0.9,1.4s0.8,1.2,1.2,1.5c1.2,1,1.6,1.8,1.6,3.2
	c0,1.8-1.6,3.6-4.5,3.6c-2.6,0-4.7-1.1-4.7-2.9c0-1.8,2-3.6,4.5-3.6h0.801c-0.301-0.4-0.601-0.8-0.601-1.4c0-0.3,0.101-0.6,0.2-1
	c-0.2,0-0.3,0-0.4,0c-2.1,0-3.5-1.6-3.5-3.6c0-1.9,1.9-3.6,4-3.6h4.601l-1,0.8h-1.5V41.053z M152,44.253h-2v2h-1v-2h-2v-1h2v-2h1v2
	h2V44.253z"/>
<path fill="#FFFFFF" d="M206.9,50.833c-0.4,2.2-0.9,4.301-2.5,5.4c-0.5-3.3,0.699-5.8,1.199-8.5c-0.899-1.5,0.101-4.6,2-3.9
	c2.4,0.9-2.1,5.7,0.9,6.301c3.1,0.6,4.4-5.4,2.5-7.4c-2.8-2.8-8.1-0.1-7.5,4c0.2,1,1.2,1.3,0.4,2.7c-1.801-0.4-2.301-1.8-2.2-3.7
	c0.1-3.1,2.8-5.2,5.399-5.5c3.4-0.4,6.5,1.2,7,4.4c0.5,3.6-1.5,7.399-5.1,7.199C208.1,51.733,207.7,51.233,206.9,50.833z"/>
<g>
	<path fill-rule="evenodd" clip-rule="evenodd" fill="#383838" d="M112.449,24.531c-2.461,0-4.924,0.002-7.385-0.002
		c-0.43-0.001-0.751-0.218-0.984-0.574c-0.144-0.22-0.193-0.465-0.193-0.723c0.001-4.848,0-9.697,0.002-14.545
		c0-0.638,0.388-1.094,1.008-1.25c0.049-0.011,0.104-0.004,0.155-0.004c4.928,0,9.854,0.002,14.784-0.002
		c0.503,0,1.028,0.411,1.148,0.92c0.02,0.084,0.028,0.173,0.029,0.261c0.001,4.917,0,9.837,0.002,14.755
		c0,0.595-0.57,1.167-1.167,1.166C117.381,24.529,114.915,24.531,112.449,24.531z M110.582,13.845c0,2.727,0,5.438,0,8.151
		c0.848,0,1.684,0,2.532,0c0-0.065,0-0.12,0-0.175c0-1.281,0-2.561,0.002-3.84c0-0.225,0.006-0.451,0.029-0.673
		c0.037-0.338,0.116-0.667,0.332-0.94c0.354-0.455,0.85-0.533,1.38-0.477c0.518,0.055,0.837,0.361,0.961,0.853
		c0.071,0.284,0.119,0.581,0.121,0.873c0.015,1.402,0.01,2.805,0.011,4.206c0,0.059,0,0.118,0,0.174c0.859,0,1.696,0,2.535,0
		c0.002-0.048,0.007-0.084,0.007-0.122c0-1.485,0.002-2.973-0.001-4.459c-0.003-0.647-0.047-1.291-0.231-1.917
		c-0.216-0.727-0.621-1.299-1.341-1.599c-0.62-0.26-1.271-0.315-1.931-0.225c-0.802,0.11-1.446,0.489-1.894,1.177
		c-0.019,0.029-0.039,0.056-0.061,0.084c-0.01-0.002-0.021-0.004-0.031-0.005c0-0.361,0-0.721,0-1.084
		C112.185,13.845,111.389,13.845,110.582,13.845z M106.446,13.846c0,2.728,0,5.438,0,8.151c0.848,0,1.683,0,2.521,0
		c0-2.723,0-5.438,0-8.151C108.121,13.846,107.288,13.846,106.446,13.846z M107.698,12.728c0.802,0.006,1.472-0.643,1.48-1.438
		c0.008-0.84-0.635-1.501-1.467-1.506c-0.815-0.004-1.473,0.644-1.485,1.464C106.214,12.054,106.878,12.721,107.698,12.728z"/>
</g>
<g>
	<path fill="#FFFFFF" d="M111.449,56.201c-2.303,0-4.606,0.002-6.909-0.002c-0.402,0-0.703-0.203-0.921-0.537
		c-0.134-0.205-0.181-0.434-0.181-0.676c0.001-4.535,0-9.072,0.002-13.607c0-0.596,0.363-1.023,0.943-1.17
		c0.046-0.01,0.097-0.004,0.145-0.004c4.61,0,9.219,0.002,13.831-0.002c0.47,0,0.962,0.385,1.074,0.861
		c0.019,0.078,0.026,0.162,0.027,0.244c0.001,4.6,0,9.203,0.002,13.803c0,0.557-0.534,1.092-1.092,1.092
		C116.063,56.199,113.756,56.201,111.449,56.201z M109.702,46.205c0,2.551,0,5.088,0,7.625c0.793,0,1.576,0,2.369,0
		c0-0.061,0-0.111,0-0.164c0-1.197-0.001-2.395,0.002-3.592c0-0.211,0.006-0.422,0.027-0.631c0.035-0.316,0.109-0.623,0.311-0.879
		c0.332-0.426,0.794-0.5,1.291-0.447c0.484,0.053,0.783,0.338,0.899,0.799c0.066,0.266,0.111,0.543,0.113,0.816
		c0.014,1.311,0.009,2.623,0.01,3.934c0,0.055,0,0.111,0,0.164c0.804,0,1.587,0,2.372,0c0.002-0.045,0.006-0.08,0.006-0.115
		c0-1.389,0.002-2.781-0.001-4.172c-0.002-0.605-0.043-1.207-0.216-1.793c-0.202-0.68-0.581-1.215-1.255-1.496
		c-0.58-0.242-1.188-0.295-1.806-0.209c-0.75,0.102-1.353,0.457-1.771,1.1c-0.018,0.027-0.038,0.053-0.058,0.08
		c-0.01-0.002-0.019-0.004-0.028-0.006c0-0.338,0-0.674,0-1.014C111.202,46.205,110.458,46.205,109.702,46.205z M105.833,46.205
		c0,2.553,0,5.088,0,7.627c0.793,0,1.575,0,2.358,0c0-2.549,0-5.088,0-7.627C107.4,46.205,106.621,46.205,105.833,46.205z
		 M107.004,45.158c0.751,0.006,1.377-0.602,1.385-1.344c0.008-0.787-0.594-1.404-1.372-1.41c-0.763-0.004-1.378,0.604-1.39,1.371
		C105.616,44.529,106.237,45.152,107.004,45.158z"/>
</g>
</svg>
